<?xml version="1.0" encoding="utf-8"?>
<!-- Generator: Adobe Illustrator 15.0.0, SVG Export Plug-In . SVG Version: 6.00 Build 0)  -->
<!DOCTYPE svg PUBLIC "-//W3C//DTD SVG 1.1//EN" "http://www.w3.org/Graphics/SVG/1.1/DTD/svg11.dtd">
<svg version="1.1" id="Layer_1" xmlns="http://www.w3.org/2000/svg" xmlns:xlink="http://www.w3.org/1999/xlink" x="0px" y="0px"
	 width="140px" height="140px" viewBox="0 0 140 140" enable-background="new 0 0 140 140" xml:space="preserve">
<rect fill="#1B1B1B" width="140" height="140"/>
<g>
	<path d="M70.003,33.43v0.007c18.43,0,33.426-15.001,33.426-33.437h-3.223c0,16.662-13.547,30.215-30.204,30.215v-0.006
		c-16.662,0-30.216-13.547-30.216-30.202h-3.222C36.565,18.436,51.566,33.43,70.003,33.43z"/>
	<path d="M70.003,27.069c14.926,0,27.064-12.145,27.064-27.069h-3.222c0,13.151-10.691,23.848-23.842,23.848
		S46.155,13.157,46.155,0.007h-3.222C42.933,14.932,55.078,27.069,70.003,27.069z"/>
	<path d="M70.003,20.708c11.415,0,20.702-9.293,20.702-20.708h-3.221c0,9.64-7.841,17.479-17.481,17.479v0.006
		c-9.64,0-17.48-7.84-17.48-17.479h-3.228C49.295,11.42,58.589,20.708,70.003,20.708z"/>
	<path d="M70.003,14.346V14.34c7.91,0,14.34-6.43,14.34-14.34h-3.221c0,6.135-4.984,11.119-11.12,11.119v0.006
		c-6.135,0-11.119-4.983-11.119-11.118h-3.222C55.663,7.916,62.094,14.346,70.003,14.346z"/>
	<path d="M70.003,7.985V7.979c4.399,0,7.979-3.581,7.979-7.979H74.76c0,2.624-2.134,4.757-4.757,4.757v0.006
		c-2.624,0-4.757-2.133-4.757-4.756h-3.222C62.024,4.405,65.605,7.985,70.003,7.985z"/>
	<path d="M0,106.569v3.223c16.662,0,30.216,13.546,30.216,30.202h3.222C33.438,121.564,18.437,106.569,0,106.569z"/>
	<path d="M0,112.933v3.22c13.151,0,23.848,10.691,23.848,23.842h3.222C27.07,125.068,14.926,112.933,0,112.933z"/>
	<path d="M0,119.293v3.221c9.64,0,17.48,7.84,17.48,17.48h3.228C20.708,128.58,11.415,119.293,0,119.293z"/>
	<path d="M0,125.654v3.221c6.135,0,11.119,4.984,11.119,11.119h3.222C14.34,132.084,7.91,125.654,0,125.654z"/>
	<path d="M0,132.016v3.223c2.624,0,4.757,2.133,4.757,4.756h3.222C7.979,135.596,4.398,132.016,0,132.016z"/>
	<path d="M134.992,5.013c0.125-1.66,0.252-3.321,0.252-5.013h-3.223c0,1.806-0.119,3.574-0.271,5.342
		c-1.063,0.132-2.114,0.295-3.165,0.484c0.189-1.919,0.296-3.857,0.296-5.827h-3.222c0,2.202-0.164,4.367-0.409,6.506
		c-1.114,0.258-2.222,0.535-3.315,0.855c0-0.006,0.006-0.006,0.006-0.006c0.346-2.41,0.578-4.851,0.578-7.355h-3.221
		c0,2.894-0.303,5.713-0.781,8.469c0.007-0.006,0.014-0.006,0.025-0.006c-1.151,0.402-2.309,0.792-3.436,1.258
		c0.68-3.14,1.051-6.387,1.051-9.721h-3.221c0,3.983-0.586,7.828-1.605,11.49c-1.359,0.661-2.687,1.365-3.989,2.121
		c1.554-4.254,2.448-8.822,2.448-13.61h-3.223c0,6.021-1.484,11.691-4.077,16.706c0.007,0,0.007,0,0.013-0.006
		c-6.129,4.329-11.471,9.672-15.801,15.8c-5.008,2.586-10.678,4.078-16.7,4.078V36.57c-6.021,0-11.691-1.485-16.706-4.078
		c0,0.006,0,0.006,0.006,0.013c-4.329-6.128-9.671-11.47-15.8-15.8c-2.586-5.008-4.078-10.678-4.078-16.699h-3.222
		c0,4.782,0.894,9.35,2.448,13.604c0.013,0.006,0.025,0.019,0.044,0.025c-1.334-0.774-2.699-1.491-4.09-2.177
		c0.019,0.012,0.044,0.019,0.069,0.031c-1.019-3.662-1.611-7.501-1.611-11.483h-3.222c0,3.334,0.378,6.581,1.051,9.714
		c0.006,0,0.006,0.007,0.013,0.007c-1.12-0.466-2.271-0.85-3.423-1.252c-0.479-2.756-0.78-5.575-0.78-8.469H17.48
		c0,2.503,0.239,4.945,0.579,7.355c-1.087-0.312-2.191-0.593-3.303-0.85c-0.252-2.139-0.416-4.304-0.416-6.505h-3.222
		c0,1.969,0.107,3.907,0.296,5.82c0.013,0.006,0.019,0.006,0.031,0.006C10.389,5.644,9.325,5.48,8.25,5.348
		C8.098,3.58,7.979,1.812,7.979,0.007H4.757c0,1.692,0.132,3.353,0.258,5.014C3.354,4.889,1.693,4.763,0,4.763v3.222
		c34.199,0,62.024,27.824,62.024,62.017c0,4.397,3.581,7.977,7.979,7.977c4.399,0,7.979-3.58,7.979-7.977
		c0-34.199,27.825-62.023,62.018-62.023V4.757C138.312,4.757,136.648,4.889,134.992,5.013z M64.661,61.752
		c-0.132-1.063-0.296-2.114-0.485-3.165c1.919,0.188,3.857,0.296,5.827,0.296s3.908-0.107,5.821-0.296
		c0.006-0.013,0.006-0.019,0.006-0.031c-0.188,1.057-0.352,2.12-0.484,3.196c-1.768,0.151-3.536,0.271-5.342,0.271
		C68.197,62.022,66.429,61.903,64.661,61.752z M70.003,55.661c-2.202,0-4.367-0.164-6.506-0.409
		c-0.258-1.113-0.535-2.221-0.855-3.316c0.006,0,0.006,0.007,0.006,0.007c2.41,0.346,4.851,0.579,7.355,0.579
		s4.946-0.239,7.356-0.579c-0.312,1.087-0.593,2.191-0.85,3.304C74.371,55.497,72.206,55.661,70.003,55.661z M70.003,74.756
		c-2.624,0-4.757-2.133-4.757-4.754c0-1.688-0.132-3.353-0.256-5.01c1.66,0.126,3.321,0.252,5.013,0.252
		c1.693,0,3.354-0.132,5.015-0.258c-0.132,1.661-0.258,3.322-0.258,5.016C74.76,72.623,72.626,74.756,70.003,74.756z M78.472,48.519
		c-2.756,0.478-5.574,0.78-8.469,0.78c-2.895,0-5.713-0.302-8.469-0.78c0.006,0.006,0.006,0.013,0.006,0.025
		c-0.403-1.151-0.793-2.309-1.259-3.436c3.14,0.68,6.387,1.051,9.722,1.051c3.334,0,6.583-0.377,9.715-1.051
		c0-0.006,0.007-0.006,0.007-0.013C79.259,46.216,78.875,47.368,78.472,48.519z M81.456,41.396c0.013-0.019,0.019-0.044,0.031-0.069
		c-3.662,1.019-7.501,1.61-11.484,1.61s-7.828-0.585-11.49-1.604c-0.661-1.359-1.365-2.687-2.121-3.989
		c4.254,1.554,8.822,2.448,13.61,2.448v0.006c4.782,0,9.35-0.894,13.604-2.448c0.007-0.013,0.02-0.025,0.025-0.044
		C82.859,38.64,82.141,40.006,81.456,41.396z"/>
	<path d="M81.123,70.001c0,6.133-4.99,11.118-11.12,11.118c-6.135,0-11.119-4.99-11.119-11.118C58.884,37.54,32.469,11.125,0,11.125
		v3.221c30.688,0,55.663,24.968,55.663,55.656c0,7.901,6.431,14.338,14.34,14.338c7.903,0,14.34-6.432,14.34-14.338
		c0-30.688,24.969-55.662,55.656-55.662v-3.221C107.538,11.119,81.123,37.533,81.123,70.001z"/>
	<path d="M87.484,70.001c0,9.637-7.841,17.478-17.481,17.478c-9.64,0-17.48-7.841-17.48-17.478C52.523,41.05,28.958,17.492,0,17.486
		v3.222c27.183,0.006,49.295,22.124,49.295,49.294h0.006c0,11.413,9.288,20.699,20.702,20.699c11.415,0,20.702-9.286,20.702-20.699
		C90.711,42.819,112.83,20.708,140,20.708v-3.228C111.048,17.479,87.49,41.044,87.484,70.001z"/>
	<path d="M93.845,70.001c0,13.149-10.697,23.839-23.842,23.839c-13.151,0-23.842-10.696-23.842-23.839h-0.006
		c0-25.439-20.702-46.148-46.155-46.154v3.222c23.672,0.006,42.933,19.267,42.933,42.932h0.006c0,14.917,12.138,27.06,27.063,27.06
		c14.919,0,27.064-12.136,27.064-27.06C97.074,46.329,116.333,27.069,140,27.069v-3.222C114.56,23.848,93.851,44.549,93.845,70.001z
		"/>
	<path d="M100.212,70.001h-0.006c0,16.66-13.554,30.207-30.204,30.207v-0.006c-16.662,0-30.209-13.555-30.209-30.201
		c0-21.935-17.852-39.787-39.793-39.787v3.222c20.167,0,36.571,16.404,36.571,36.564c0,18.427,14.995,33.421,33.432,33.421v0.008
		c18.43,0,33.426-14.996,33.426-33.429h0.006c0-20.167,16.404-36.571,36.564-36.571v-3.221
		C118.064,30.209,100.212,48.06,100.212,70.001z"/>
	<path d="M106.575,70.001h-0.007c0,20.164-16.404,36.568-36.565,36.568v-0.006c-20.167,0-36.571-16.404-36.571-36.562
		c0-18.43-14.995-33.425-33.432-33.425v3.222c16.662,0,30.21,13.553,30.21,30.203c0,21.933,17.852,39.785,39.793,39.785v0.006
		c21.936,0,39.788-17.852,39.788-39.791h0.006c0-16.663,13.554-30.209,30.203-30.209V36.57
		C121.57,36.57,106.575,51.564,106.575,70.001z"/>
	<path d="M112.937,70.001c-0.007,23.669-19.268,42.931-42.934,42.931C46.331,112.925,27.07,93.665,27.07,70.001h-0.006
		c0-14.919-12.138-27.063-27.063-27.063v3.221c13.151,0,23.842,10.697,23.842,23.842h0.006c0,25.437,20.702,46.145,46.155,46.151
		c25.44,0,46.149-20.7,46.155-46.151c0-13.151,10.697-23.842,23.842-23.842v-3.221C125.081,42.938,112.937,55.076,112.937,70.001z"
		/>
	<path d="M119.298,70.001c-0.007,27.181-22.125,49.292-49.295,49.292c-27.183-0.008-49.294-22.124-49.294-49.292h-0.006
		c0-11.415-9.288-20.702-20.702-20.702v3.222c9.64,0,17.48,7.84,17.48,17.48c0,28.949,23.565,52.506,52.522,52.512v0.006
		c28.952,0,52.51-23.563,52.516-52.518c0-9.64,7.841-17.48,17.48-17.48v-3.222C128.585,49.299,119.298,58.587,119.298,70.001z"/>
	<path d="M125.66,70.001c0,30.685-24.969,55.659-55.657,55.659v-0.006c-30.688,0-55.663-24.968-55.663-55.653
		c0-7.904-6.431-14.34-14.34-14.34v3.222c6.135,0,11.119,4.99,11.119,11.119c0,32.46,26.416,58.874,58.884,58.874v0.008
		c32.463,0,58.878-26.415,58.878-58.881c0-6.136,4.989-11.119,11.118-11.119v-3.222C132.097,55.661,125.66,62.092,125.66,70.001z"/>
	<path d="M132.021,70.001c0,34.197-27.824,62.02-62.018,62.02v-0.006c-34.199,0-62.024-27.823-62.024-62.014
		c0-4.398-3.581-7.979-7.979-7.979v3.221c2.624,0,4.757,2.133,4.757,4.758c0,1.688,0.132,3.352,0.257,5.006
		C3.354,74.883,1.693,74.756,0,74.756v3.223c1.806,0,3.574,0.119,5.342,0.27c0.132,1.064,0.296,2.115,0.484,3.166
		C3.908,81.225,1.97,81.119,0,81.119v3.221c2.202,0,4.367,0.164,6.506,0.408c0.258,1.114,0.535,2.222,0.856,3.315
		c-0.006,0-0.006-0.006-0.006-0.006C4.946,87.712,2.504,87.479,0,87.479V90.7c2.895,0,5.713,0.303,8.47,0.781
		c-0.006-0.008-0.006-0.014-0.006-0.025c0.403,1.15,0.793,2.309,1.258,3.436c-3.14-0.68-6.387-1.051-9.722-1.051v3.221
		c3.983,0,7.828,0.586,11.49,1.605c0.661,1.359,1.366,2.688,2.121,3.988c-4.253-1.553-8.822-2.447-13.61-2.447v3.223
		c6.022,0,11.691,1.484,16.707,4.076c0-0.006,0-0.006-0.006-0.012c4.329,6.129,9.671,11.47,15.8,15.8
		c2.586,5.008,4.077,10.678,4.077,16.699h3.222c0-4.781-0.893-9.35-2.448-13.604c-0.012-0.006-0.025-0.02-0.044-0.025
		c1.334,0.773,2.7,1.49,4.09,2.178c-0.019-0.014-0.044-0.02-0.069-0.033c1.02,3.664,1.611,7.502,1.611,11.484h3.222
		c0-3.334-0.377-6.582-1.051-9.715c-0.006,0-0.006-0.006-0.013-0.006c1.12,0.465,2.271,0.85,3.423,1.252
		c0.478,2.756,0.78,5.574,0.78,8.469h3.222c0-2.504-0.239-4.945-0.579-7.355c1.087,0.314,2.191,0.594,3.304,0.85
		c0.251,2.139,0.415,4.305,0.415,6.506h3.222c0-1.969-0.107-3.908-0.295-5.82c-0.013-0.006-0.019-0.006-0.032-0.006
		c1.057,0.188,2.121,0.352,3.197,0.484c0.151,1.768,0.271,3.535,0.271,5.342h3.222c0-1.693-0.132-3.354-0.258-5.016
		c1.661,0.133,3.322,0.26,5.015,0.26v0.006c1.688,0,3.352-0.133,5.008-0.256c-0.125,1.658-0.251,3.32-0.251,5.012h3.222
		c0-1.805,0.119-3.574,0.271-5.342c1.063-0.133,2.114-0.295,3.165-0.484c-0.188,1.92-0.295,3.857-0.295,5.826h3.221
		c0-2.201,0.164-4.367,0.409-6.506c1.114-0.258,2.222-0.535,3.316-0.855c0,0.006-0.007,0.006-0.007,0.006
		c-0.346,2.41-0.578,4.852-0.578,7.355h3.221c0-2.895,0.303-5.713,0.781-8.469c-0.007,0.006-0.014,0.006-0.025,0.006
		c1.151-0.402,2.309-0.793,3.436-1.258c-0.68,3.139-1.051,6.387-1.051,9.721h3.222c0-3.982,0.585-7.826,1.604-11.49
		c1.359-0.66,2.688-1.365,3.989-2.119c-1.554,4.254-2.448,8.822-2.448,13.609h3.223c0-6.021,1.484-11.691,4.077-16.705
		c-0.007,0-0.007,0-0.013,0.006c6.129-4.33,11.471-9.671,15.801-15.8c5.008-2.586,10.678-4.078,16.699-4.078v-3.221
		c-4.781,0-9.35,0.893-13.604,2.447c-0.006,0.014-0.02,0.025-0.025,0.045c0.773-1.334,1.491-2.699,2.178-4.09
		c-0.014,0.018-0.02,0.043-0.032,0.068c3.663-1.02,7.501-1.611,11.483-1.611v-3.221c-3.334,0-6.582,0.377-9.715,1.051
		c0,0.006-0.006,0.006-0.006,0.012c0.465-1.119,0.85-2.271,1.252-3.422c2.756-0.479,5.574-0.781,8.469-0.781v-3.221
		c-2.504,0-4.945,0.238-7.355,0.578c0.312-1.086,0.594-2.189,0.85-3.302c2.14-0.252,4.305-0.416,6.506-0.416v-3.221
		c-1.969,0-3.907,0.105-5.82,0.295c-0.006,0.012-0.006,0.02-0.006,0.031c0.188-1.057,0.352-2.121,0.484-3.197
		c1.768-0.15,3.536-0.27,5.342-0.27v-3.223c-1.692,0-3.354,0.133-5.015,0.258c0.132-1.66,0.259-3.322,0.259-5.012
		c0-2.625,2.133-4.758,4.756-4.758v-3.221C135.601,62.022,132.021,65.603,132.021,70.001z"/>
	<path d="M106.575,140h3.222c0-16.662,13.547-30.214,30.203-30.214v-3.223C121.57,106.563,106.575,121.564,106.575,140z"/>
	<path d="M112.937,140h3.221c0-13.15,10.691-23.848,23.842-23.848v-3.22C125.074,112.933,112.937,125.074,112.937,140z"/>
	<path d="M119.298,140h3.221c0-9.639,7.841-17.48,17.48-17.48v-3.227C128.585,119.293,119.298,128.586,119.298,140z"/>
	<path d="M125.66,140h3.222c0-6.135,4.983-11.117,11.118-11.117v-3.223C132.09,125.66,125.66,132.092,125.66,140z"/>
	<path d="M132.021,140h3.223c0-2.623,2.133-4.756,4.756-4.756v-3.223C135.601,132.021,132.021,135.602,132.021,140z"/>
</g>
</svg>
